<svg width="36" height="36" viewBox="0 0 36 36" fill="none" xmlns="http://www.w3.org/2000/svg">
<rect width="36" height="36" fill="#1E1E1E"/>
<g id="Player / Online">
<rect x="-251" y="-512" width="358" height="798" rx="27" fill="#020C02"/>
<rect x="-251" y="-512" width="358" height="798" rx="27" stroke="#00B3BF" stroke-width="2"/>
<g id="Controls dislike/like">
<g id="Like slot">
<g id="Like">
<g id="icon">
<path id="Vector" d="M18 30C18 30 6.00001 22.5 6.00001 14.5C5.99217 13.0874 6.4447 11.7108 7.28911 10.5784C8.13352 9.44596 9.32384 8.61945 10.6799 8.22393C12.036 7.82841 13.484 7.88541 14.8048 8.3863C16.1256 8.88719 17.2472 9.80471 18 11C18.7528 9.80471 19.8745 8.88719 21.1952 8.3863C22.516 7.88541 23.964 7.82841 25.3201 8.22393C26.6762 8.61945 27.8665 9.44596 28.7109 10.5784C29.5553 11.7108 30.0078 13.0874 30 14.5C30 22.5 18 30 18 30Z" stroke="#00F0FF" stroke-width="2.5"/>
</g>
</g>
</g>
</g>
</g>
</svg>
